<svg xmlns="http://www.w3.org/2000/svg" id="Layer_1" data-name="Layer 1" width="200" height="100" viewBox="0 0 200 100"><defs><style>      .cls-1 {        fill: #d12f38;      }      .cls-1, .cls-2 {        stroke-width: 0px;      }      .cls-2 {        fill: #253c81;      }    </style></defs><path class="cls-2" d="M126.5,20s0,0-.1,0c0,0,0,0,0,0l-17.7,32.5c0,0,0,0-.1,0h-8.4c-.2,0-.3,0-.2-.3,0,0,0-.1.1-.2,8.1-15.6,16.9-32.7,26.3-51.1,0,0,0,0,.1,0l33.6,50c0,0,0,.1,0,.2,0,0,0,0,0,0h-13.2c-.2,0-.3,0-.4-.2l-19.9-30.9Z"></path><path class="cls-1" d="M72.4,13.2l20.6,39.3s0,0,0,.1c0,0,0,0,0,0h-12.7s0,0,0,0L59.6,13.3s0,0,0-.1c0,0,0,0,0,0h12.7s0,0,0,0Z"></path><path class="cls-1" d="M89.1,13.2l12.9,24.3s0,0,0,0l-5.6,12.1c0,0,0,0-.1,0,0,0,0,0,0,0l-18.8-36.3c0,0,0-.1,0-.1,0,0,0,0,0,0h11.5s0,0,0,0Z"></path><path class="cls-2" d="M59.7,52.5L40.1,13.7c0,0,0-.1,0-.1,0,0,0,0,0,0l15.5-.3s0,0,.1,0l20.1,39.1c0,0,0,.1,0,.1,0,0,0,0,0,0h-16s0,0,0,0Z"></path><rect class="cls-1" x="120.6" y="33.9" width="4.7" height="4.7" rx=".2" ry=".2" transform="translate(0 .2) rotate(0)"></rect><rect class="cls-1" x="126.8" y="33.9" width="4.7" height="4.7" rx=".2" ry=".2" transform="translate(0 .2) rotate(0)"></rect><rect class="cls-1" x="120.6" y="40.5" width="4.7" height="4.7" rx=".2" ry=".2" transform="translate(0 .2) rotate(0)"></rect><rect class="cls-1" x="126.8" y="40.5" width="4.7" height="4.7" rx=".2" ry=".2" transform="translate(86 171.9) rotate(-89.9)"></rect><path class="cls-2" d="M42.3,61.3c-.1.2-.2.5-.4.7-.9,1.8-3.3,2.2-5.1,2.2s-.2,0-.2-.1c0-.3,0-.6.1-.9,0,0,.1-.2.2-.2.9-.4.8-1.1.8-2.2,0-1,0-2,0-3,0-.7-.3-1.2-.8-1.3-.1,0-.2-.1-.2-.2v-.8c-.2-.1-.1-.2,0-.2,3,0,5.8,1,5.6,4.6,0,0,0,0,0,.1,0,0,0,0,0,0,0,0,0,0,0,0,.7-2.2,2-3.8,4-4.7.6-.3,1.2-.4,1.8-.3.1,0,.2,0,.2.2v.9c0,.1,0,.2-.2.2-.7.2-1.1.8-1.1,1.6,0,3.1,0,6.3,0,9.5,0,.8.4,1.3,1.1,1.5,0,0,.1,0,.1.2v.9c0,.1,0,.2-.2.2-4.8-.1-6.7-4.5-6.1-8.8,0-.2,0-.2,0,0Z"></path><path class="cls-2" d="M52,55.7c.3,0,.6,0,.7-.3.1-.3.3-.5.7-.5.1,0,.3,0,.3.2.1.2.2.4.2.6,0,1.6,0,3.1,0,4.5,0,.3-.2.6-.6.6-.3,0-.5,0-.6-.4-.5-1.7-1.3-3.6-3.1-4.2-.1,0-.2-.1-.2-.3v-.8c0-.1,0-.2.2-.2,0,0,0,0,0,0l2.3.8Z"></path><path class="cls-2" d="M59.8,68.8c1.2-.2,2-1.3,1.3-2.4-.3-.4-.7-.8-1.4-1-2.4-1-5.3-2.1-5.4-5.3,0-3,1.8-4.9,4.8-5.1.2,0,.2,0,.2.2v.8c0,.2,0,.3-.3.3-1.2.3-1.4,1.7-.7,2.5.4.4.9.7,1.5,1,2.9,1.1,5.5,2.5,5,6.1-.3,2.6-2.6,4.1-5.2,4.3-.1,0-.2,0-.2-.2v-.9c0-.1,0-.2.2-.3Z"></path><path class="cls-2" d="M64.2,55.1c.2.2.3.4.3.6,0,1.2,0,2.4,0,3.7,0,.3-.2.6-.4.7-.3.1-.6,0-.8-.3,0,0,0,0,0,0-.4-1.8-1.4-3-2.9-3.5-.2,0-.2-.2-.2-.3v-.7c0-.1,0-.2.2-.2,0,0,0,0,0,0,.8.1,1.6.4,2.4.7.2,0,.4,0,.6-.1l.3-.4c.2-.2.4-.3.6,0Z"></path><path class="cls-2" d="M165.9,56.3c-.3,0-.6.3-.8.5-.9,1.2.3,2.3,1.3,2.8,2.8,1.1,5.6,2.3,5.4,5.9-.2,2.8-2.5,4.5-5.2,4.7-.1,0-.2,0-.2-.2v-.9c0-.1,0-.2.2-.2.5-.1,1-.3,1.3-.7.9-1,.1-2.2-.9-2.7-.7-.3-1.4-.7-2.2-1-2.1-.9-3.8-2.6-3.6-5.1.3-2.7,1.8-4.2,4.7-4.6.3,0,.5,0,.4.4,0,.1,0,.3,0,.4,0,.3,0,.5-.3.5Z"></path><path class="cls-2" d="M170.1,55.6l.4-.5c.1-.2.4-.2.5,0,0,0,0,0,0,0,.2.2.3.4.3.7,0,1.2,0,2.5,0,3.8,0,.3-.2.5-.5.7-.3,0-.5,0-.6-.3,0,0,0,0,0,0-.5-1.9-1.5-3.2-3-3.6-.1,0-.2-.1-.2-.3v-.8c0,0,0-.1.1-.1,0,0,0,0,0,0,.8.1,1.6.3,2.4.7.2,0,.4,0,.6-.1Z"></path><path class="cls-2" d="M36.1,68.5l.6.2c.3,0,.4.4.3.7,0,.1-.1.2-.3.3-.2.1-.5.2-.8.1-1.7,0-3.4,0-5.2,0-.2,0-.4,0-.6-.2-.2-.1-.3-.4-.1-.6,0,0,0-.1.1-.1.5-.3.7-.7.7-1.3.1-3.8.1-7.4,0-10.8,0-.1,0-.2-.1-.3-.2-.2-.4-.3-.6-.4-.1,0-.2-.1-.2-.2-.2-.5.3-.7.6-.7,1.7,0,3.4,0,5.2,0,0,0,0,0,0,0h0s0,12.8,0,12.8c0,.3.1.4.4.5Z"></path><path class="cls-2" d="M73.2,68.1c0-1.3,0-2.7.2-4.2.1-2.2-.2-4.5-.3-6.7,0-.5-.4-.8-.7-1.1-.2-.2-.2-.5,0-.6,0,0,0,0,0,0,0,0,.2,0,.3,0,1.7,0,3.4,0,5.1,0,.1,0,.2,0,.2.2,0,4.1,0,8.3,0,12.5,0,1.1,1.3.4,1.3,1.4,0,.5-.6.6-.9.6-1.8,0-3.7,0-5.8,0-.2,0-.3,0-.4-.2,0-.2-.1-.4,0-.5,0-.1.2-.2.3-.3.3-.2.6-.3.6-.7Z"></path><path class="cls-2" d="M79.8,56.8l-.6-.4c0,0-.1-.1-.2-.2,0-.2,0-.4,0-.7,0-.1,0-.2.2-.2,3.6,0,6.4,1.8,5.5,5.8-.6,2.6-3.3,3.3-5.6,3.2,0,0-.2,0-.2-.2,0-.3,0-.6.1-.8,0,0,.1-.2.2-.2.5-.2.8-.7.8-1.4,0-1.6,0-3.1,0-4.3,0-.2-.1-.4-.3-.5Z"></path><path class="cls-2" d="M89,66.2h-2.6c0,0-.2,0-.2-.2,0,0,0,0,0,0l.2-.9c0-.2.1-.2.3-.2h2c0,0,.1,0,.1-.1,0,0,0,0,0,0-.6-2.7-1.2-5.4-1.9-8.2,0-.4,0-.9.2-1.3,0,0,.1-.1.2-.1h4c0,0,.1,0,.2,0,.9,4.1,1.9,8.3,3,12.7,0,.4.3.7.7.8.1,0,.2,0,.3,0l.6-.3c.2,0,.3-.2.3-.4,0-3.5,0-6.9,0-10.3,0-.7.2-1.3-.7-1.5-.3,0-.5-.3-.4-.6,0-.1,0-.2.1-.3.1-.1.3-.2.6-.2,1.7,0,3.3,0,4.9,0,.1,0,.2.1.2.2,0,4.2,0,8.3,0,12.4,0,.2,0,.4.1.5,0,.1.2.2.3.2l.6.2c.3,0,.4.4.4.7,0,.1-.1.2-.2.3-.1,0-.3.2-.5.2-1.9,0-3.7,0-5.5,0-.2,0-.5,0-.7-.1-.3-.1-.6.1-.9.1-1.8,0-3.6,0-5.3,0-.5,0-.7-.2-.7-.7,0-.1,0-.2.1-.3l.5-.3c.2-.2.3-.4.2-.6l-.3-1.5c0-.1,0-.2-.2-.2Z"></path><path class="cls-2" d="M105.2,62.4c-.6.1-.6.3,0,.4,1,.2,2,.5,2.5,1.4.5.9.3,2.4.3,3.4,0,0,0,.2.2.2,0,0,0,0,.1,0l.5-.4c0,0,.2,0,.3,0,.6,0,.6.7.4,1.1-.7,1.3-1.8,1.9-3.4,1.8-3.2-.2-2.8-3.2-2.8-5.4,0-.7-.3-1.1-1-1.3,0,0-.1,0-.2-.1,0-.3,0-.6,0-.9,0-.1,0-.2.2-.2.6,0,1-.5.9-1.1,0-1.1,0-2.2,0-3.4,0-.6-.2-1-.8-1.2,0,0-.2,0-.2-.2-.2-.3-.2-.6-.2-1,0-.1,0-.2.2-.2.6,0,1.1,0,1.6,0,2,0,3.9,1.2,4.1,3.3.2,1.9-.9,3.4-2.8,3.9Z"></path><path class="cls-2" d="M111.8,56.6c-1,.8-1.2,2-1.4,3.2,0,.3-.4.6-.7.5-.1,0-.3,0-.3-.2-.1-.1-.2-.3-.2-.5,0-1.3,0-2.7,0-4.2,0-.2,0-.3.2-.3h2.3c.2,0,.3,0,.3.3v.7c0,.2,0,.3-.2.4Z"></path><path class="cls-2" d="M118,68.5c.3.1.6.3.8.5.2.1.2.4,0,.6,0,0-.1.1-.2.2-.5.2-1,.2-1.5.2-1.6,0-3.4,0-5.2-.2-.2,0-.4-.2-.4-.5,0,0,0-.2,0-.2.2-.2.4-.4.8-.5.3,0,.5-.3.5-.6v-12.7c0,0,0-.1.1-.1h4.5c0,0,.1,0,.1.1,0,3.5,0,7,0,10.4,0,.9,0,1.7.2,2.5,0,.1,0,.2.2.2Z"></path><path class="cls-2" d="M118.8,56.7c-.3-.3-.4-.7-.3-1.3,0-.1,0-.2.2-.2h2.4c.1,0,.2,0,.2.2,0,1.4,0,2.8,0,4.2,0,.4-.3.7-.7.6-.3,0-.5-.2-.5-.5-.2-1.1-.4-2.3-1.3-3Z"></path><path class="cls-2" d="M133.2,69.9h-2.7c0,0-.1,0-.2,0-2.5-4.3-4.9-8.5-7.3-12.6-.2-.4-.6-.7-1-.8-.3,0-.5-.4-.4-.7,0,0,0,0,0,0,0-.3.3-.4.6-.4,1.9,0,3.6,0,5.2,0,.1,0,.3,0,.3.2l5.5,9.5c0,.2.1.3.1.5v4.4c0,0,0,.1-.1.1h0Z"></path><path class="cls-2" d="M134.7,56.3c-.8.3-1.3,1-1.3,1.8,0,1.6,0,3.3,0,4.9,0,.2,0,.2-.2,0-.6-.8-1-1.5-1-2.2,0-1.1.2-2.8-.3-3.7-.2-.5-.8-.7-1.2-1-.1,0-.2-.2-.2-.3,0-.4.2-.6.6-.6.9,0,1.9,0,3,0,.2,0,.4,0,.5.1.3.2.3.5.2.7,0,0-.1.2-.3.2Z"></path><path class="cls-2" d="M135.5,68.8c.5-.2.7-.3.7-.9,0-3.2,0-6.6,0-10.1,0-.7.1-1.3-.7-1.5-.3,0-.4-.4-.4-.6,0-.2.2-.3.3-.4.2,0,.5-.1.7-.1,1.7,0,3.2,0,4.6,0,0,0,.2,0,.2.2,0,0,0,0,0,0v14.3c0,0,0,.2-.2.2h0c-1.6,0-3.2,0-5,0-.2,0-.4,0-.5-.2-.2-.2-.3-.5,0-.7,0,0,.1-.1.2-.2Z"></path><path class="cls-2" d="M142.1,55.2h4c0,0,.2,0,.2.1,0,0,0,0,0,0v4.1c0,.2-.2.3-.4.3,0,0,0,0,0,0-.1,0-.2,0-.3-.2-.9-1.5-1.3-2.7-3.2-3-.1,0-.2-.1-.2-.2-.1-.3-.1-.7,0-1,0,0,0,0,0,0Z"></path><path class="cls-2" d="M148,68.2v-11.3c0-.1,0-.2-.1-.3l-.8-.7c-.2-.1-.2-.4,0-.6,0,0,.1,0,.2-.1.2,0,.5-.1.7-.1,1.6,0,3.2,0,4.7,0s.2,0,.2.2h0s0,12.8,0,12.8c0,.2,0,.3.2.3l.7.3c.3.1.4.4.3.7,0,.1-.2.2-.3.3,0,0-.2,0-.3,0-1.9,0-3.9,0-5.9,0-.2,0-.4-.1-.5-.3-.1-.2,0-.4.1-.6.2-.2.4-.3.6-.4.1,0,.2-.1.2-.3Z"></path><path class="cls-2" d="M161.2,68.7c0-.5,0-.5-.3-.1-.5.9-1.3,1.4-2.3,1.5-4.1.5-3.7-3-3.8-5.8,0-.8-1.3-.8-.9-1.9,0,0,.1-.2.2-.2.5-.1.8-.5.8-1,0-1.1,0-2.2,0-3.5,0-.6-.3-1-.8-1.3,0,0-.2-.1-.2-.2l-.2-.8c0-.1,0-.2.2-.2,2.8-.2,6.2.6,5.8,4.1-.2,1.7-1.2,2.6-2.8,3-.6.2-.6.3,0,.4,1,.1,1.9.6,2.4,1.4.5.7.3,2.3.3,3.2,0,.5.2.5.5.2.1-.1.3-.3.4-.3,0,0,.2,0,.3,0h.2c.2.2.2.1.2,0,0-.6-.2-2.1.2-2.6.2-.2.5-.3.7-.1,0,0,.2.2.2.3.5,1.8,1.4,3.5,3.2,4.1.1,0,.2.1.2.2v.8c0,.1,0,.2-.2.2-.9-.1-1.6-.4-2.4-.8-.1,0-.3,0-.4,0-.2,0-.3.2-.4.4-.1.2-.4.3-.6.2-.5-.2-.4-.9-.4-1.3Z"></path><path class="cls-1" d="M1,56.4h24.8c0,0,0,0,0,.1h0v5.1c0,0,0,0,0,0H6.1s0,0,0,0l-5.2-5.1s0-.1,0-.1c0,0,0,0,0,0Z"></path><path class="cls-1" d="M194.1,61.7h-19.7c0,0-.1,0-.1-.1h0v-5.1c0,0,0-.1.1-.1h24.8c0,0,.1,0,.1,0,0,0,0,0,0,0l-5.2,5.1s0,0,0,0Z"></path><path class="cls-2" d="M85.1,67.2c-.3,1,.3,1.2,1,1.6.3.1.4.4.2.7,0,0,0,.1-.1.1-.1.1-.3.2-.5.2-1.2,0-2.2,0-3.1,0-.5,0-.7-.2-.7-.7,0-.1,0-.2.1-.2.9-.5,1.4-.7,1.7-1.8.9-2.9,1.7-5.9,2.4-8.8,0-.3.1-.3.2,0,.2.7.6,1.6.3,2.3-.6,2.2-1.2,4.4-1.8,6.6Z"></path><path class="cls-2" d="M123.4,59.3c.3.6.9,1.3.9,2,0,1.9,0,3.7,0,5.5,0,1.1.5,1.6,1.4,2.1.2.1.3.4.2.7,0,0,0,0,0,.1-.2.1-.3.2-.6.2-.9,0-1.9,0-2.9,0-.2,0-.4,0-.5-.2-.2-.1-.3-.4-.1-.6,0,0,.1-.1.2-.2.9-.5,1.4-1.3,1.3-2.5,0-2.3,0-4.7,0-7.1,0-.3,0-.3.2,0Z"></path><path class="cls-2" d="M143.6,65.2c-.4-.9-.6-1.6-1.4-2.2,0,0-.1-.1-.2-.2,0-.4,0-.8.2-1.1.6-.5,1-1.2,1.3-2,0-.2.3-.3.5-.2,0,0,.1,0,.1,0,.1.1.2.3.2.5.2,1.5.3,2.9,0,4.5,0,.3-.1.6-.3.8,0,.2-.3.2-.5.1,0,0-.1,0-.2-.2Z"></path><path class="cls-2" d="M55.6,69.5l-.4.4c0,0-.2.1-.3.1-.4,0-.6-.3-.6-.7,0-1.4,0-2.8,0-4.1,0-.4.2-.6.5-.7.3,0,.6,0,.6.3,0,0,0,0,0,0,.4,1.7,1.5,3.5,3.2,4.1,0,0,.1,0,.1.2v.9c0,0,0,.2-.2.2,0,0,0,0,0,0-.8-.1-1.6-.4-2.3-.8-.2-.1-.5,0-.7.1Z"></path><path class="cls-1" d="M9.4,64.9h16.4c0,0,.1,0,.1,0h0v4.8c0,0,0,.1-.1.1h-11.5s0,0,0,0l-4.8-4.8s0-.1,0-.2c0,0,0,0,0,0Z"></path><path class="cls-1" d="M186,69.9h-11.5c0,0,0,0,0,0h0s0-4.8,0-4.8c0,0,0,0,0,0h16.3c0,0,0,0,0,.1,0,0,0,0,0,0l-4.8,4.8s0,0,0,0Z"></path><path class="cls-2" d="M146.4,69.8h-4.2c-.1,0-.2,0-.2-.2v-.8c0-.1.1-.2.2-.2,2.2-.4,2.6-2,3.8-3.6,0,0,.1,0,.2,0,0,0,0,0,0,0,.1.3.2.6.2,1,0,1.2,0,2.5,0,3.7,0,0,0,0,0,0h0Z"></path><path class="cls-2" d="M49.7,68.8c1.5-.3,2.7-1.2,3.1-2.7,0-.3.3-.5.7-.5.3,0,.4.3.4.9,0,0,0,.2,0,.3-.8,1.9-2.2,3-4.1,3.3-.1,0-.2,0-.2-.2v-.9c0-.1,0-.2.2-.2Z"></path><path class="cls-2" d="M90,71.9h7.9c0,0,0,0,0,0,0,0,0,0,0,0l-14.7,27s0,0-.1,0c0,0,0,0,0,0l-13.6-27s0-.1,0-.1c0,0,0,0,0,0h16.2s0,0,0,0l1.9,3.8s0,0,.1,0c0,0,0,0,0,0l1.9-3.8s0,0,0,0Z"></path><rect class="cls-1" x="109.6" y="72.4" width="1.4" height="1.4" rx=".3" ry=".3" transform="translate(35.3 182.1) rotate(-89)"></rect><rect class="cls-1" x="112.3" y="72.4" width="1.4" height="7.2" rx=".3" ry=".3" transform="translate(-.1 .2) rotate(0)"></rect><rect class="cls-1" x="154.3" y="72.4" width="1.4" height="7.2" rx=".2" ry=".2"></rect><path class="cls-1" d="M114.9,72.7c0-.1,0-.2.2-.2h.6c.5,0,.9.2.9.6h0c0,.5-.4.8-.8.8h-.6c-.1,0-.2,0-.2-.2,0,0,0,0,0,0v-1Z"></path><path class="cls-1" d="M104.6,77.4s0,0,0,0c.3-1.5.7-3,1.1-4.6,0-.1.1-.2.2-.2h2.1c0,0,.1,0,.1.1v6.6c0,.1,0,.2-.2.2h-1c-.1,0-.2,0-.2-.2,0,0,0,0,0,0v-4.9c0,0,0-.1,0-.1,0,0,0,0,0,0,0,0,0,.1-.1.2-.4,1.5-.8,3-1.2,4.6,0,.1-.1.2-.2.2-.4,0-.7,0-1.1,0-.1,0-.2-.1-.3-.2-.4-1.5-.8-3.1-1.2-4.6,0,0,0,0,0-.1,0,0-.1,0-.2,0,0,0,0,0,0,0v4.9c0,.2,0,.3-.2.3h-1c-.1,0-.2,0-.2-.2v-6.6c0,0,0-.1.1-.1h2.1c.1,0,.2,0,.2.2l1.1,4.6s0,0,0,0Z"></path><path class="cls-1" d="M139.2,77.4v2c0,0,0,.2-.2.2s0,0,0,0h-1.1c0,0-.1,0-.1-.2v-6.6c0,0,0-.2.1-.2h0c.9,0,1.8,0,2.7,0,1.3,0,2.2.7,2.2,1.9,0,.7,0,1.3-.4,1.8,0,.1-.2.2-.3.3,0,0-.2.1-.2.2,0,0,0,.2,0,.3l.8,2.2c0,.1,0,.2-.1.2h-1.2c-.1,0-.2,0-.3-.2l-.7-1.9c0-.1-.1-.2-.3-.2h-1c-.1,0-.2,0-.2.2ZM139.2,73.9v2c0,0,0,.1.1.1h1.3c.5,0,.9-.4.9-1h0v-.2c0-.5-.4-1-.9-1h-1.3c0,0-.1,0-.1.1h0Z"></path><path class="cls-1" d="M161,78.3h2.7c.1,0,.2.1.2.2v.8c0,.1,0,.2-.2.2,0,0,0,0,0,0h-4.1c-.1,0-.2,0-.2-.2v-6.6c0-.1,0-.2.2-.2h4.1c.1,0,.2.1.2.2,0,0,0,0,0,0v.8c0,.1,0,.2-.2.2h-2.7c-.1,0-.2,0-.2.2h0s0,1.2,0,1.2c0,.1,0,.2.2.2h2.1c.1,0,.2.1.2.2v.8c0,.1,0,.2-.2.2h-2.1c-.1,0-.2,0-.2.2h0s0,1.2,0,1.2c0,.1,0,.2.2.2Z"></path><path class="cls-1" d="M119.6,75.6c-.1,0-.3,0-.4.2,0,0,0,0,0,0v2.2c0,.2,0,.3.3.3h.6c.1,0,.2.2.3.3.1.2.1.5.1.8,0,0,0,.2-.2.2-.9.1-2.2.3-2.3-.9-.1-1.1,0-2.3-.5-3.4,0-.1,0-.3,0-.4l.5-1.6c0-.1.1-.2.3-.2.3,0,.6,0,.9.2.1,0,.2.1.2.3v.7c0,.2.1.3.3.3.3,0,.6,0,.8.2.2.2.3.6,0,.8,0,.1-.2.2-.4.2-.1,0-.2,0-.4,0Z"></path><path class="cls-1" d="M171.5,75.6c-.1,0-.2,0-.2.2v2.3c0,.2,0,.3.3.3h.7c.1,0,.2.1.2.2,0,.2.1.5,0,.7,0,0,0,.1-.1.2-1.1.3-2.4.3-2.5-1.2,0-.8,0-1.6,0-2.4,0-.1,0-.2-.1-.3,0,0-.2-.1-.3-.1,0,0-.2,0-.2-.2v-.6c0-.1,0-.2.1-.2.1,0,.2-.1.3-.2,0,0,.1-.2.1-.3v-.7c0-.2,0-.2.2-.3h.9c.1,0,.3.1.3.2h0s0,1,0,1c0,.1,0,.2.2.2h.9c.1,0,.2.1.2.2,0,0,0,0,0,0v.8c0,0,0,.2-.2.2,0,0,0,0,0,0h-.9Z"></path><path class="cls-1" d="M180.5,75.6c-.1,0-.2,0-.3.1,0,0,0,0,0,0v2.3c0,.1,0,.2.2.3.2,0,.4,0,.7,0,.2,0,.3,0,.3.2v.5c.1.2,0,.4-.2.4-1,.2-2.2.2-2.3-1.2,0-.8,0-1.5-.1-2.4,0-.1,0-.2-.1-.3-.5-.5-.4-.9,0-1.3,0,0,.2-.2.2-.3v-.7c0-.1.2-.2.3-.2.3,0,.6,0,.9,0,.2,0,.2.1.2.3v.8c0,.1,0,.2.2.2h.8c.2,0,.3.2.3.3,0,0,0,0,0,0v.6c0,.2-.2.3-.4.3-.2,0-.4,0-.6,0Z"></path><path class="cls-1" d="M123.7,76.3c0,0,.2-.1.2-.2,0-.4-.2-.6-.6-.6-.6,0-1.2,0-1.7,0-.1,0-.2,0-.2-.2,0-.2,0-.4,0-.5,0-.1.1-.2.2-.2,1.3-.4,3.7-.7,3.7,1.3,0,.8,0,1.5,0,2.2,0,0,0,.2,0,.3.2.4.3.8.2,1.1,0,.3-.2.3-.5.2-.6-.3-1.2-.3-1.7-.2-.8.2-1.8.2-2.2-.7-.2-.5-.3-1,0-1.4.4-1.2,1.6-.9,2.6-1.1ZM123.9,78.2v-.7c0-.1-.2-.2-.3-.2,0,0,0,0,0,0h-.6c-.3.1-.6.4-.6.7h0c0,.3.3.6.7.5h.6c.1,0,.2-.2.2-.3Z"></path><path class="cls-1" d="M145.3,77.6c-.2,0-.3.1-.2.3v.2c.2.3.4.4.7.4h2.1c.1,0,.2,0,.1,0v.7c0,0,0,.2-.2.2-1.4.3-3.5.6-4-1.1-.3-1.1-.3-2.9.7-3.7.7-.5,2-.5,2.7,0,.9.5.9,1.8.8,2.7,0,.1,0,.2-.2.2h-2.5ZM145.1,76.5h1.5c0,0,.1,0,.1-.1h0c0-.6-.3-.9-.7-.9h-.3c-.4,0-.7.4-.7.8h0c0,.2,0,.3.1.3,0,0,0,0,0,0Z"></path><path class="cls-1" d="M151.6,76.1h0c0-.5-.2-.6-.5-.6h-1.8c-.2,0-.2,0-.2-.2v-.5c0,0,0-.2.1-.2,1.3-.3,3.7-.8,3.8,1.3,0,.7,0,1.3,0,2,0,.6.3,1,.3,1.7,0,.1,0,.2-.2.2-.4,0-.8-.1-1.2-.3,0,0-.2,0-.3,0-1.2.4-2.8.6-3-1.2-.2-1.8,1.3-1.8,2.6-1.9.2,0,.3-.1.3-.3,0,0,0,0,0,0ZM151.5,77.3l-1.4.2s0,0,0,0c0,0,0,0,0,0v.6c.1.2.3.4.6.4h.6c.3,0,.4-.3.4-.6,0,0,0,0,0,0v-.6c0,0-.1,0-.2,0,0,0,0,0,0,0Z"></path><path class="cls-1" d="M166,75.9c0,.1,0,.3.1.3,0,0,0,0,0,0,1.1.3,2.7.3,2.6,1.9-.1,2-2.4,1.7-3.7,1.4-.2,0-.3-.1-.3-.3v-.7c0-.1,0-.2.2-.2.6,0,1.2,0,1.9.1.2,0,.4,0,.5-.2,0-.1,0-.3,0-.4,0,0,0,0-.1,0-1-.2-2.4-.3-2.5-1.6-.1-2.3,2.3-2,3.8-1.7.1,0,.2.1.2.3v.6c0,.1,0,.2-.2.2,0,0,0,0,0,0-.6,0-1.2-.1-1.9-.1-.2,0-.4.1-.5.3Z"></path><path class="cls-1" d="M176,76c0-.2-.1-.4-.5-.5,0,0,0,0,0,0h-1.7c-.1,0-.2,0-.2-.1,0-.2,0-.4,0-.6,0-.1,0-.2.2-.2.6-.1,1.3-.2,2-.3,1.1,0,1.7.5,1.7,1.5,0,.7,0,1.3,0,2,0,.6.3,1.1.2,1.7,0,.1,0,.2-.2.1-.6,0-1.2-.4-1.8-.2-1.2.3-2.4.2-2.5-1.2-.2-1.8,1.3-1.9,2.5-1.9.2,0,.3-.1.4-.3ZM176,77.7c0-.2-.3-.4-.5-.4h-.6c-.2,0-.4.3-.4.6v.2c0,.2.3.4.5.4h.6c.2,0,.4-.3.4-.6v-.2Z"></path><path class="cls-1" d="M183.7,77.6c-.4,0-.5.2-.2.5.3.4,1.2.5,2.4.3.3,0,.5,0,.4.4,0,0,0,.1,0,.2,0,.2,0,.4-.2.4-2.3.6-3.7.2-4-1.3-.4-2,.2-4.1,2.6-3.8,1.7.2,1.9,1.7,1.7,3,0,.1,0,.2-.2.2h-2.5ZM183.7,76.5h1.4c.1,0,.2-.1.2-.2h0c0-.5-.4-.9-.9-.9,0,0,0,0,0,0h0c-.5,0-.9.4-.8.9h0s0,0,0,0c0,.1,0,.2.2.2h0Z"></path><path class="cls-1" d="M116.3,74.8v4.4c0,.2,0,.4-.3.4h-.7c-.2,0-.4-.1-.4-.4,0,0,0,0,0,0v-4.5c0-.2.1-.4.3-.4,0,0,0,0,0,0h.6c.2.1.3.3.3.5Z"></path><path class="cls-1" d="M128.1,74.9c.4-.2.8-.4,1.3-.5,0,0,.1,0,.1,0v1.1c0,0,0,.1-.1.1l-1.4.4c0,0-.1,0-.1.2v3.1c0,.1,0,.2-.2.2h-1c-.1,0-.2,0-.2-.2v-4.7c0-.1,0-.2.2-.2h.9c.1,0,.2,0,.2.2,0,0,0,.2,0,.2,0,0,.1,0,.2,0Z"></path><rect class="cls-1" x="109.6" y="74.4" width="1.4" height="5.1" rx=".2" ry=".2"></rect><path class="cls-1" d="M133.4,74.5h1.1c0,0,.1,0,.1,0,0,0,0,0,0,0l-1.7,7.1s0,0-.1,0h-1.1c0,0-.1,0-.1,0,0,0,0,0,0,0l.5-1.9c0,0,0-.1,0-.1,0,0,0,0,0,0h-.8s0,0,0-.1l-1.2-4.9c0,0,0-.1,0-.1,0,0,0,0,0,0h1.1s0,0,.1,0l.9,3.9c0,0,0,0,.1,0,0,0,0,0,0,0l.9-3.9s0,0,.1,0Z"></path></svg>